<svg version="1.1" xmlns="http://www.w3.org/2000/svg" xmlns:xlink="http://www.w3.org/1999/xlink" width="25" height="25" viewBox="0 0 25 25"><path id="Avatar" d="M0.001,23.581 C0.017,23.502 0.040,23.424 0.048,23.345 C0.104,22.791 0.340,22.340 0.776,21.987 C1.580,21.337 2.520,20.953 3.480,20.615 C4.609,20.218 5.765,19.916 6.945,19.719 C7.402,19.642 7.792,19.447 8.133,19.141 C8.678,18.651 9.110,18.012 9.470,17.149 C9.231,16.934 8.980,16.730 8.754,16.501 C7.768,15.502 7.066,14.322 6.527,13.034 C6.019,11.821 5.632,10.579 5.496,9.264 C5.355,7.905 5.329,6.546 5.684,5.216 C6.530,2.044 8.879,0.338 11.682,0.043 C11.745,0.036 11.806,0.014 11.868,-0.000 C12.291,-0.000 12.715,-0.000 13.138,-0.000 C13.497,0.062 13.859,0.110 14.213,0.190 C15.965,0.586 17.372,1.513 18.357,3.016 C19.015,4.020 19.403,5.143 19.526,6.343 C19.710,8.144 19.567,9.923 18.997,11.643 C18.474,13.223 17.802,14.737 16.697,16.017 C16.346,16.423 16.002,16.835 15.599,17.309 C15.888,18.004 16.368,18.780 17.135,19.354 C17.574,19.683 18.104,19.710 18.609,19.819 C20.242,20.169 21.846,20.609 23.331,21.396 C23.645,21.562 23.935,21.777 24.222,21.989 C24.634,22.294 24.883,22.712 24.935,23.220 C24.983,23.680 24.993,24.145 25.001,24.608 C25.005,24.837 24.845,24.978 24.613,24.995 C24.557,24.999 24.499,24.996 24.442,24.996 C16.484,24.996 8.525,24.995 0.567,25.000 C0.329,25.001 0.138,24.954 0.001,24.752 C0.001,24.362 0.001,23.971 0.001,23.581 zM24.231,24.206 C24.216,23.968 24.196,23.758 24.189,23.548 C24.176,23.090 23.988,22.727 23.595,22.490 C23.179,22.240 22.765,21.975 22.323,21.776 C20.953,21.161 19.508,20.773 18.033,20.511 C17.414,20.400 16.862,20.179 16.393,19.764 C15.588,19.053 15.065,18.150 14.670,17.167 C14.582,16.949 14.689,16.797 14.862,16.643 C15.329,16.229 15.814,15.825 16.217,15.352 C16.994,14.441 17.492,13.368 17.940,12.259 C18.785,10.165 19.024,8.012 18.639,5.803 C18.343,4.104 17.489,2.722 16.016,1.773 C14.719,0.940 13.290,0.688 11.768,0.820 C9.326,1.032 7.256,2.688 6.547,5.029 C6.095,6.525 6.122,8.045 6.327,9.572 C6.462,10.577 6.763,11.532 7.145,12.471 C7.817,14.125 8.694,15.620 10.183,16.680 C10.360,16.806 10.413,16.978 10.333,17.173 C9.945,18.122 9.448,19.003 8.680,19.704 C8.270,20.078 7.799,20.328 7.253,20.458 C6.147,20.721 5.039,20.978 3.948,21.293 C3.065,21.548 2.232,21.930 1.455,22.440 C0.783,22.881 0.787,23.526 0.789,24.206 C8.608,24.206 16.400,24.206 24.231,24.206 z" fill="#757575" /></svg>