<svg width="40" height="40" viewBox="0 0 40 40" fill="none" xmlns="http://www.w3.org/2000/svg">
<path d="M5.00005 19.1667C4.99431 21.3665 5.50827 23.5365 6.50005 25.5C7.67599 27.853 9.4838 29.832 11.721 31.2155C13.9581 32.599 16.5363 33.3324 19.1667 33.3334C21.3665 33.3391 23.5365 32.8252 25.5 31.8334L35 35L31.8334 25.5C32.8252 23.5365 33.3391 21.3665 33.3334 19.1667C33.3324 16.5363 32.599 13.9581 31.2155 11.721C29.832 9.4838 27.853 7.67599 25.5 6.50005C23.5365 5.50827 21.3665 4.99431 19.1667 5.00005H18.3334C14.8595 5.1917 11.5783 6.65798 9.11815 9.11815C6.65798 11.5783 5.1917 14.8595 5.00005 18.3334V19.1667Z" stroke="#DEE4EA" stroke-width="1.5" stroke-linecap="round" stroke-linejoin="round"/>
</svg>
