<svg width="40" height="40" viewBox="0 0 40 40" fill="none" xmlns="http://www.w3.org/2000/svg">
<path d="M30 17.5C30 24.4036 24.4036 30 17.5 30C10.5964 30 5 24.4036 5 17.5C5 10.5964 10.5964 5 17.5 5C24.4036 5 30 10.5964 30 17.5Z" fill="#DEE4EA"/>
<path d="M32.803 33.8637C33.0959 34.1566 33.5708 34.1566 33.8637 33.8637C34.1566 33.5708 34.1566 33.0959 33.8637 32.803L32.803 33.8637ZM29.25 17.5C29.25 23.9893 23.9893 29.25 17.5 29.25V30.75C24.8178 30.75 30.75 24.8178 30.75 17.5H29.25ZM17.5 29.25C11.0107 29.25 5.75 23.9893 5.75 17.5H4.25C4.25 24.8178 10.1822 30.75 17.5 30.75V29.25ZM5.75 17.5C5.75 11.0107 11.0107 5.75 17.5 5.75V4.25C10.1822 4.25 4.25 10.1822 4.25 17.5H5.75ZM17.5 5.75C23.9893 5.75 29.25 11.0107 29.25 17.5H30.75C30.75 10.1822 24.8178 4.25 17.5 4.25V5.75ZM33.8637 32.803L26.8844 25.8237L25.8237 26.8844L32.803 33.8637L33.8637 32.803Z" fill="#DEE4EA"/>
</svg>
