<svg width="40" height="40" viewBox="0 0 40 40" fill="none" xmlns="http://www.w3.org/2000/svg">
<path d="M35 30C35 32.7614 32.7614 35 30 35C27.2386 35 25 32.7614 25 30C25 27.2386 27.2386 25 30 25C32.7614 25 35 27.2386 35 30Z" fill="#DEE4EA"/>
<path d="M35 10C35 12.7614 32.7614 15 30 15C27.2386 15 25 12.7614 25 10C25 7.23858 27.2386 5 30 5C32.7614 5 35 7.23858 35 10Z" fill="#DEE4EA"/>
<path d="M15 20C15 22.7614 12.7614 25 10 25C7.23858 25 5 22.7614 5 20C5 17.2386 7.23858 15 10 15C12.7614 15 15 17.2386 15 20Z" fill="#DEE4EA"/>
<path d="M25.526 27.763L14.4897 22.2448M14.474 17.763L25.5208 12.2396M35 30C35 32.7614 32.7614 35 30 35C27.2386 35 25 32.7614 25 30C25 27.2386 27.2386 25 30 25C32.7614 25 35 27.2386 35 30ZM35 10C35 12.7614 32.7614 15 30 15C27.2386 15 25 12.7614 25 10C25 7.23858 27.2386 5 30 5C32.7614 5 35 7.23858 35 10ZM15 20C15 22.7614 12.7614 25 10 25C7.23858 25 5 22.7614 5 20C5 17.2386 7.23858 15 10 15C12.7614 15 15 17.2386 15 20Z" stroke="#DEE4EA" stroke-width="1.5"/>
</svg>
